<svg xmlns="http://www.w3.org/2000/svg" width="480" height="480" viewBox="0 0 120 120">
  <defs>
    <linearGradient id="g1" x1="0" y1="0" x2="1" y2="1">
      <stop offset="0%" stop-color="#0EA5E9"/>
      <stop offset="100%" stop-color="#8B5CF6"/>
    </linearGradient>
  </defs>
  <rect x="8" y="8" rx="16" ry="16" width="104" height="104" fill="#E8F3FB" stroke="#B3D6EE"/>
  <path d="M35 96 v-6 c3-12 17-18 25-18s22 6 25 18v6z" fill="#DDE8F7" stroke="#B3D6EE"/>
  <rect x="55" y="70" width="10" height="8" rx="2" fill="#DDE8F7" stroke="#B3D6EE"/>
  <circle cx="60" cy="52" r="22" fill="#F3F7FF" stroke="#B3D6EE"/>
  <path d="M42 40c6-8 30-8 36 0 0 0-6 2-18 2s-18-2-18-2z" fill="#0EA5E9" opacity="0.25"/>
  <circle cx="52" cy="52" r="3.2" fill="#14213D"/>
  <circle cx="68" cy="52" r="3.2" fill="#14213D"/>
  <rect x="50" y="64" width="20" height="3.5" rx="1.8" fill="url(#g1)"/>
  <circle cx="45" cy="57" r="1.2" fill="#8B5CF6" opacity="0.8"/>
  <circle cx="75" cy="57" r="1.2" fill="#8B5CF6" opacity="0.8"/>
  <text x="20" y="24" font-family="Inter, Arial" font-size="5" fill="#0F172A" opacity="0.8">Liam</text>
</svg>